<svg version="1.1" xmlns="http://www.w3.org/2000/svg" viewBox="0 0 180 21.844558140597886" width="360" height="43.68911628119577"><!-- svg-source:excalidraw --><metadata/><defs><style class="style-fonts">@@FONTS@@</style></defs><rect x="0" y="0" width="180" height="21.844558140597886" fill="#ffffff"/><g stroke-linecap="round"><g transform="translate(10 10.183985313672734) rotate(0 80 0.7382937566262092)"><path d="M0 0 C34.77 3.1, 74.05 1.11, 160 0 M0 0 C37.25 -0.59, 72.88 0.47, 160 0" stroke="#1e1e1e" stroke-width="2" fill="none"/></g><g transform="translate(10 10.183985313672734) rotate(0 80 0.7382937566262092)"><path d="M138.08 -5.88 C139.28 -5.93, 140.55 -5.32, 141.48 -4.46 C142.42 -3.59, 143.49 -2.07, 143.69 -0.7 C143.89 0.68, 143.45 2.71, 142.67 3.8 C141.89 4.88, 140.28 5.65, 139.02 5.83 C137.77 6, 136.26 5.43, 135.13 4.86 C134.01 4.29, 132.78 3.5, 132.28 2.42 C131.77 1.33, 131.84 -0.44, 132.12 -1.66 C132.4 -2.87, 132.94 -4.22, 133.96 -4.89 C134.98 -5.56, 137.47 -5.52, 138.24 -5.66 C139 -5.8, 138.6 -5.87, 138.57 -5.71 M138.79 -6.34 C140.15 -6.12, 141.64 -4.28, 142.32 -3.35 C143.01 -2.41, 143 -1.89, 142.91 -0.74 C142.82 0.41, 142.37 2.53, 141.78 3.55 C141.19 4.56, 140.51 5.17, 139.35 5.37 C138.19 5.56, 136.04 5.11, 134.8 4.72 C133.56 4.32, 132.38 3.96, 131.92 3.02 C131.46 2.07, 131.68 0.29, 132.04 -0.96 C132.4 -2.2, 132.96 -3.68, 134.09 -4.43 C135.22 -5.19, 138.02 -5.28, 138.81 -5.48 C139.59 -5.67, 138.93 -5.54, 138.8 -5.6" stroke="none" stroke-width="0" fill="#ffffff"/><path d="M138.43 -5.84 C139.55 -5.59, 141.48 -4.21, 142.28 -3.22 C143.09 -2.23, 143.26 -1.18, 143.25 0.1 C143.24 1.38, 142.99 3.51, 142.24 4.48 C141.48 5.45, 139.96 5.79, 138.71 5.93 C137.47 6.07, 135.86 6.02, 134.78 5.3 C133.69 4.57, 132.67 2.77, 132.2 1.56 C131.73 0.35, 131.57 -0.8, 131.96 -1.96 C132.34 -3.12, 133.27 -4.76, 134.5 -5.42 C135.74 -6.08, 138.65 -5.93, 139.35 -5.91 C140.05 -5.89, 138.72 -5.43, 138.69 -5.33 M135.77 -6.07 C136.85 -6.26, 138.92 -4.91, 140.02 -4.33 C141.11 -3.75, 141.8 -3.52, 142.36 -2.58 C142.92 -1.63, 143.79 -0.07, 143.36 1.33 C142.93 2.73, 140.94 5.11, 139.78 5.82 C138.63 6.52, 137.62 5.88, 136.43 5.56 C135.24 5.24, 133.42 4.81, 132.66 3.9 C131.9 2.98, 131.93 1.38, 131.86 0.07 C131.79 -1.24, 131.41 -3.07, 132.26 -3.96 C133.12 -4.86, 136.37 -4.93, 136.98 -5.3 C137.6 -5.67, 136.06 -6.2, 135.95 -6.19" stroke="#1e1e1e" stroke-width="2" fill="none"/></g><g transform="translate(10 10.183985313672734) rotate(0 80 0.7382937566262092)"><path d="M151.89 8.46 C150.95 6.14, 153.66 0.65, 151.86 -8.44 M151.89 8.46 C152.45 4.37, 151.59 1.4, 151.86 -8.44" stroke="#1e1e1e" stroke-width="2" fill="none"/></g></g><mask/></svg>